# xmcd CD database file
#
# Track frame offsets:
#	150
#	19870
#	38632
#	57630
#	75460
#	95112
#	109910
#	126200
#	141972
#	160347
#	181657
#	199712
#	219445
#	238190
#	257165
#	278022
#
# Disc length: 3940 seconds
#
# Revision: 2
# Processed by: cddbd v1.5.2PL0 Copyright (c) Steve Scherf et al.
# Submitted via: jetAudio 7
#
DISCID=e50f6210
DTITLE=因幡晃 - BEST SELECTION
DYEAR=1900
DGENRE=Folk
TTITLE0=夕映えを待ちながら
TTITLE1=俺ひとり
TTITLE2=サブリナ
TTITLE3=背中にTENDERNESS
TTITLE4=忍冬
TTITLE5=風のハミング
TTITLE6=セレナーデ
TTITLE7=別涙
TTITLE8=ジュリアン
TTITLE9=根なし草
TTITLE10=Please Remember Me tonight
TTITLE11=青い黄河
TTITLE12=RAIN DOLL
TTITLE13=花吹雪
TTITLE14=そして愛・・・
TTITLE15=わかって下さい
EXTD=
EXTT0=
EXTT1=
EXTT2=
EXTT3=
EXTT4=
EXTT5=
EXTT6=
EXTT7=
EXTT8=
EXTT9=
EXTT10=
EXTT11=
EXTT12=
EXTT13=
EXTT14=
EXTT15=
PLAYORDER=
